<?xml version="1.0" encoding="iso-8859-1"?>
<!-- Generator: Adobe Illustrator 19.0.0, SVG Export Plug-In . SVG Version: 6.00 Build 0)  -->
<svg version="1.1" id="Layer_1" xmlns="http://www.w3.org/2000/svg" xmlns:xlink="http://www.w3.org/1999/xlink" x="0px" y="0px"
	 viewBox="0 0 512 512" style="enable-background:new 0 0 512 512;" xml:space="preserve">
<rect x="395.807" y="126.634" transform="matrix(-0.7071 -0.7071 0.7071 -0.7071 594.9957 555.9774)" style="fill:#FF3F62;" width="33.675" height="56.254"/>
<g>
	<rect x="225.644" y="43.885" style="fill:#52A2E7;" width="48.034" height="60.112"/>
	<rect x="208.177" style="fill:#52A2E7;" width="82.972" height="51.552"/>
</g>
<g>
	<rect x="225.644" y="78.828" style="fill:#4675CF;" width="48.034" height="25.176"/>
	<rect x="225.644" y="51.552" style="fill:#4675CF;" width="48.034" height="10.318"/>
</g>
<circle style="fill:#52A2E7;" cx="249.658" cy="303.489" r="208.505"/>
<circle style="fill:#CCE4F7;stroke:#CCE4F7;stroke-miterlimit:10;" cx="249.658" cy="303.489" r="176.309"/>
<path style="fill:#4E8FE3;" d="M247.835,332.186L247.835,332.186c-11.567,0-21.032-9.464-21.032-21.032V210.579l21.032-32.894l0,0
	l21.032,32.894v100.575C268.867,322.722,259.403,332.186,247.835,332.186z"/>
<polygon style="fill:#4675CF;" points="270.416,273.351 311.223,232.065 342.817,222.194 333.316,253.9 270.673,317.279 
	254.902,333.235 215.571,373.029 193.478,351.193 226.803,317.477 "/>
<g>
	<path style="fill:#3C66B1;" d="M246.946,162.146c-4.345,0-7.868-3.523-7.868-7.868v-25.953c0-4.345,3.523-7.868,7.868-7.868
		c4.345,0,7.868,3.523,7.868,7.868v25.953C254.814,158.624,251.291,162.146,246.946,162.146z"/>
	<path style="fill:#3C66B1;" d="M246.946,487.643c-4.345,0-7.868-3.523-7.868-7.868v-30c0-4.345,3.523-7.868,7.868-7.868
		c4.345,0,7.868,3.523,7.868,7.868v30C254.814,484.121,251.291,487.643,246.946,487.643z"/>
	<path style="fill:#3C66B1;" d="M424.1,311.947h-26.058c-4.345,0-7.868-3.523-7.868-7.868c0-4.345,3.523-7.868,7.868-7.868H424.1
		c4.345,0,7.868,3.523,7.868,7.868C431.968,308.424,428.446,311.947,424.1,311.947z"/>
	<path style="fill:#3C66B1;" d="M102.533,311.947H74.569c-4.345,0-7.868-3.523-7.868-7.868c0-4.345,3.523-7.868,7.868-7.868h27.964
		c4.345,0,7.868,3.523,7.868,7.868C110.401,308.424,106.878,311.947,102.533,311.947z"/>
	<path style="fill:#3C66B1;" d="M353.516,205.377c-2.013,0-4.027-0.768-5.563-2.305c-3.073-3.073-3.073-8.055,0-11.127
		l18.696-18.696c3.073-3.073,8.055-3.073,11.127,0c3.073,3.073,3.073,8.055,0,11.127l-18.696,18.696
		C357.543,204.609,355.53,205.377,353.516,205.377z"/>
	<path style="fill:#3C66B1;" d="M125.009,433.884c-2.013,0-4.027-0.768-5.563-2.305c-3.073-3.073-3.073-8.055,0-11.127
		l19.483-19.482c3.073-3.073,8.055-3.074,11.127,0c3.073,3.073,3.073,8.055,0,11.127l-19.483,19.481
		C129.036,433.116,127.022,433.884,125.009,433.884z"/>
	<path style="fill:#3C66B1;" d="M372.213,437.215c-2.013,0-4.027-0.768-5.563-2.305l-19.297-19.297
		c-3.073-3.073-3.073-8.055,0-11.127c3.073-3.073,8.055-3.073,11.127,0l19.297,19.297c3.073,3.073,3.073,8.055,0,11.127
		C376.239,436.446,374.226,437.215,372.213,437.215z"/>
	<path style="fill:#3C66B1;" d="M143.094,208.096c-2.013,0-4.027-0.768-5.563-2.305l-19.863-19.863
		c-3.073-3.073-3.073-8.055,0-11.127c3.073-3.073,8.055-3.073,11.127,0l19.863,19.863c3.073,3.073,3.073,8.055,0,11.127
		C147.12,207.327,145.107,208.096,143.094,208.096z"/>
</g>
<rect x="408.67" y="131.973" transform="matrix(-0.7071 -0.7071 0.7071 -0.7071 626.048 543.1183)" style="fill:#C70024;" width="33.675" height="19.855"/>
<path style="fill:#FF3F62;" d="M444.163,158.953l-35.697-35.697c-1.501-1.501-1.501-3.936,0-5.438l20.12-20.12
	c1.501-1.501,3.936-1.501,5.438,0l35.697,35.697c1.501,1.501,1.501,3.936,0,5.438l-20.12,20.12
	C448.099,160.454,445.664,160.454,444.163,158.953z"/>
<polygon style="opacity:0.16;fill:#FFFFFF;stroke:#CCE4F7;stroke-miterlimit:10;enable-background:new    ;" points="
	406.285,189.171 60.62,307.221 59.206,267.333 370.927,160.874 "/>
<path style="fill:#52A2E7;" d="M249.658,127.18c97.373,0,176.308,78.936,176.308,176.308s-78.936,176.309-176.308,176.309
	S73.349,400.861,73.349,303.489S152.285,127.18,249.658,127.18 M249.658,106.199c-26.625,0-52.465,5.219-76.8,15.513
	c-23.495,9.938-44.592,24.16-62.705,42.272c-18.112,18.112-32.335,39.208-42.273,62.705c-10.294,24.337-15.513,50.177-15.513,76.801
	s5.219,52.465,15.513,76.8c9.938,23.495,24.16,44.592,42.273,62.705s39.208,32.335,62.705,42.272
	c24.337,10.294,50.176,15.513,76.8,15.513c26.625,0,52.465-5.219,76.8-15.513c23.495-9.938,44.592-24.16,62.705-42.272
	c18.112-18.112,32.335-39.208,42.273-62.705c10.294-24.337,15.513-50.176,15.513-76.8s-5.219-52.465-15.513-76.8
	c-9.938-23.495-24.16-44.592-42.273-62.705c-18.112-18.112-39.208-32.335-62.705-42.272
	C302.121,111.418,276.282,106.199,249.658,106.199L249.658,106.199z"/>
<path style="opacity:0.09;fill:#5D5D5D;enable-background:new    ;" d="M78.08,419.822C115.529,475.425,179.064,512,251.144,512
	c115.158,0,208.511-93.354,208.511-208.511c0-21.91-3.391-43.025-9.66-62.862L78.08,419.822z"/>
<g>
</g>
<g>
</g>
<g>
</g>
<g>
</g>
<g>
</g>
<g>
</g>
<g>
</g>
<g>
</g>
<g>
</g>
<g>
</g>
<g>
</g>
<g>
</g>
<g>
</g>
<g>
</g>
<g>
</g>
</svg>
